<?xml version="1.0" encoding="utf-8"?>
<!-- Generator: Adobe Illustrator 25.2.0, SVG Export Plug-In . SVG Version: 6.00 Build 0)  -->
<svg version="1.1" id="Слой_1" xmlns="http://www.w3.org/2000/svg" xmlns:xlink="http://www.w3.org/1999/xlink" x="0px" y="0px"
	 viewBox="0 0 142.6 142.6" style="enable-background:new 0 0 142.6 142.6;" xml:space="preserve">
<style type="text/css">
	.st0{fill:none;stroke:#020202;stroke-miterlimit:10;}
	.st1{fill:none;stroke:#020202;stroke-width:2;stroke-miterlimit:10;}
	.st2{fill:none;stroke:#456700;stroke-miterlimit:10;}
	.st3{fill:none;stroke:#456700;stroke-width:3;stroke-miterlimit:10;}
</style>
<g>
	<circle class="st0" cx="71.3" cy="71.3" r="65.3"/>
	<g>
		<g>
			<g>
				<path class="st1" d="M140.7,82.3c0.2-2.2-2.1-4.1-4.5-5.8c-1.2-0.8-2.4-1.7-3.2-2.5s-1.5-1.7-1.4-2.7c0,3.2-0.3,6.3-0.8,9.4
					s-1.2,6.2-2.2,9.2c0.3-0.9,1.1-1.6,2.3-2.1c1.1-0.5,2.6-0.9,3.9-1.3c1.4-0.4,2.8-0.9,3.9-1.6C139.8,84.3,140.5,83.4,140.7,82.3z
					"/>
				<path class="st1" d="M133.9,103.2c0.3-0.5,0.4-1.1,0.4-1.6c0-0.6-0.2-1.2-0.4-1.8c-0.5-1.2-1.3-2.4-2.2-3.5
					c-1.8-2.3-3.6-4.5-3-6.3c-0.9,3-2.2,5.9-3.6,8.7c-1.4,2.8-3.1,5.5-4.9,8.1c1.2-1.6,4-1.4,6.9-1.3c1.5,0,2.9,0,4.1-0.3
					C132.4,104.8,133.4,104.2,133.9,103.2z"/>
				<path class="st1" d="M141.6,71.3c0,3.7-0.3,7.3-0.9,11c-0.6,3.6-1.5,7.2-2.6,10.7s-2.6,6.9-4.2,10.2s-3.6,6.4-5.8,9.4"/>
			</g>
			<g>
				<path class="st1" d="M120.9,121c1.5-1.7,0.7-4.6-0.2-7.3c-0.5-1.4-0.9-2.7-1.2-3.9c-0.2-1.2-0.1-2.2,0.5-3
					c-1.9,2.5-3.9,4.9-6.1,7.2c-2.2,2.2-4.7,4.3-7.2,6.1c0.8-0.6,1.9-0.6,3.1-0.4c1.2,0.3,2.6,0.8,4,1.2c1.4,0.5,2.8,0.9,4.1,1
					C119.1,122,120.2,121.8,120.9,121z"/>
				<path class="st1" d="M103.2,133.9c1-0.5,1.6-1.5,1.9-2.8c0.3-1.2,0.3-2.7,0.3-4.2c-0.1-2.9-0.3-5.7,1.3-6.9
					c-2.5,1.9-5.2,3.5-8.1,4.9c-2.8,1.4-5.7,2.7-8.7,3.6c0.9-0.3,1.9,0,3,0.6s2.2,1.5,3.3,2.4c1.2,0.9,2.3,1.7,3.5,2.2
					c0.6,0.2,1.2,0.4,1.8,0.4C102.1,134.3,102.7,134.2,103.2,133.9z"/>
				<path class="st1" d="M128.1,112.6c-8.6,11.9-21.1,20.9-35.1,25.5"/>
			</g>
			<g>
				<path class="st1" d="M82.2,140.7c1.1-0.2,1.9-1.1,2.6-2.1c0.7-1.1,1.1-2.5,1.6-3.9c0.4-1.4,0.8-2.8,1.4-3.9
					c0.5-1.1,1.2-1.9,2.2-2.1c-3,0.9-6.1,1.7-9.2,2.2s-6.3,0.7-9.4,0.7c2-0.1,3.5,2.5,5.2,4.8C78.1,138.8,80,141.1,82.2,140.7z"/>
				<path class="st1" d="M60.3,140.7c2.3,0.3,4.2-1.9,5.9-4.4c1.7-2.4,3.1-4.8,5.1-4.8c-3.2,0-6.3-0.3-9.4-0.7
					c-3.1-0.5-6.2-1.2-9.2-2.2c0.9,0.3,1.6,1.1,2.1,2.2s0.9,2.5,1.3,3.9c0.4,1.4,0.9,2.8,1.6,3.9C58.3,139.7,59.1,140.5,60.3,140.7z
					"/>
				<path class="st1" d="M92.9,138.1c-14,4.6-29.4,4.6-43.4,0"/>
			</g>
			<g>
				<path class="st1" d="M39.3,133.9c1,0.5,2.1,0.3,3.3-0.2s2.4-1.4,3.6-2.2c2.4-1.8,4.5-3.5,6.4-2.8c-3-0.9-5.9-2.2-8.7-3.6
					s-5.5-3.1-8-4.9c1.6,1.2,1.4,4,1.3,7c0,1.5,0,2.9,0.3,4.2C37.7,132.4,38.3,133.4,39.3,133.9z"/>
				<path class="st1" d="M21.6,121c0.8,0.8,2,1,3.2,0.9c1.3-0.1,2.7-0.6,4.1-1c1.4-0.5,2.7-1,3.9-1.2c1.2-0.3,2.2-0.2,3,0.4
					c-2.5-1.9-5-3.9-7.2-6.1s-4.3-4.7-6.1-7.2c0.6,0.8,0.6,1.8,0.4,3s-0.8,2.6-1.2,3.9c-0.5,1.4-0.9,2.8-1,4.1
					C20.5,119,20.8,120.1,21.6,121z"/>
				<path class="st1" d="M49.5,138.1c-14-4.6-26.5-13.6-35.1-25.5"/>
			</g>
			<g>
				<path class="st1" d="M8.6,103.1c1.1,2,4.1,2.1,7,2c3,0,5.7-0.2,6.8,1.5c-1.9-2.5-3.5-5.2-4.9-8.1c-1.4-2.8-2.7-5.7-3.6-8.7
					c0.3,0.9,0,2-0.6,3c-0.6,1.1-1.5,2.2-2.4,3.4c-0.9,1.2-1.7,2.4-2.2,3.5c-0.2,0.6-0.4,1.2-0.4,1.7C8.3,102.1,8.4,102.7,8.6,103.1
					z"/>
				<path class="st1" d="M1.9,82.3c0.2,1.2,1,2,2.1,2.7s2.5,1.1,3.9,1.6c1.4,0.4,2.8,0.8,3.9,1.3S13.7,89,14,90
					c-1-3-1.7-6.1-2.2-9.2s-0.7-6.3-0.7-9.4c0,2-2.4,3.4-4.8,5.1C3.8,78.1,1.5,79.9,1.9,82.3z"/>
				<path class="st1" d="M14.4,112.5c-2.2-3-4.1-6.1-5.8-9.4C7,99.9,5.5,96.5,4.4,93s-2-7.1-2.6-10.7C1.3,78.6,1,75,1,71.3"/>
			</g>
			<g>
				<path class="st1" d="M1.9,60.2C1.6,62.5,4,64.3,6.4,66c1.2,0.8,2.4,1.7,3.2,2.5c0.9,0.8,1.5,1.7,1.4,2.7c0-3.2,0.3-6.3,0.8-9.4
					s1.2-6.2,2.2-9.2c-0.3,0.9-1.1,1.6-2.3,2.1c-1.1,0.5-2.6,0.9-3.9,1.3s-2.9,1-4,1.6C2.8,58.3,2,59.1,1.9,60.2z"/>
				<path class="st1" d="M8.7,39.4c-0.3,0.5-0.4,1.1-0.4,1.6c0,0.6,0.2,1.2,0.4,1.8c0.5,1.2,1.3,2.4,2.2,3.5c1.8,2.3,3.6,4.5,3,6.3
					c1-3,2.2-5.9,3.6-8.7s3.1-5.5,4.9-8c-1.2,1.6-4,1.4-6.9,1.3c-1.5,0-2.9,0-4.1,0.3C10.2,37.7,9.2,38.3,8.7,39.4z"/>
				<path class="st1" d="M1,71.2c0-3.7,0.3-7.3,0.9-11c0.6-3.6,1.5-7.2,2.6-10.7C5.6,46,7,42.6,8.7,39.4c1.7-3.3,3.6-6.4,5.8-9.4"/>
			</g>
			<g>
				<path class="st1" d="M21.6,21.5c-1.5,1.7-0.7,4.5,0.2,7.3c0.5,1.4,0.9,2.7,1.2,3.9c0.2,1.2,0.1,2.2-0.5,3c1.9-2.5,3.9-5,6.1-7.2
					s4.7-4.3,7.2-6.1C35,23,33.9,23,32.7,22.8c-1.2-0.3-2.6-0.8-4-1.2s-2.8-0.9-4.1-1C23.5,20.5,22.4,20.7,21.6,21.5z"/>
				<path class="st1" d="M39.4,8.7c-1,0.5-1.6,1.5-1.9,2.8c-0.3,1.2-0.3,2.7-0.3,4.2c0,2.9,0.3,5.7-1.3,6.9c2.5-1.9,5.2-3.5,8-4.9
					s5.7-2.7,8.7-3.6c-0.9,0.3-1.9,0-3-0.6c-1-0.6-2.2-1.5-3.3-2.4c-1.2-0.9-2.3-1.7-3.5-2.2c-0.6-0.2-1.2-0.4-1.8-0.4
					C40.5,8.3,39.9,8.4,39.4,8.7z"/>
				<path class="st1" d="M14.5,29.9C23.1,18,35.6,9,49.6,4.4"/>
			</g>
			<g>
				<path class="st1" d="M60.3,1.8c-1.1,0.2-1.9,1.1-2.6,2.1C57,5,56.6,6.4,56.1,7.8c-0.4,1.4-0.8,2.8-1.4,3.9s-1.2,1.9-2.2,2.1
					c3-0.9,6.1-1.7,9.2-2.2c3.1-0.5,6.3-0.7,9.4-0.7c-2,0.1-3.5-2.5-5.2-4.8C64.4,3.7,62.6,1.5,60.3,1.8z"/>
				<path class="st1" d="M82.3,1.9c-2.3-0.3-4.2,1.9-5.9,4.4c-1.7,2.3-3.1,4.8-5.1,4.8c3.2,0,6.3,0.3,9.4,0.7
					c3.1,0.5,6.2,1.2,9.2,2.2c-0.9-0.3-1.6-1.1-2.1-2.2s-0.8-2.6-1.3-4C86.1,6.4,85.6,5,85,3.9C84.3,2.9,83.4,2.1,82.3,1.9z"/>
				<path class="st1" d="M49.6,4.4c14-4.6,29.4-4.6,43.4,0"/>
			</g>
			<g>
				<path class="st1" d="M103.2,8.7c-1-0.5-2.1-0.3-3.3,0.2c-1.2,0.5-2.4,1.4-3.6,2.2C94,12.9,91.8,14.7,90,14
					c3,0.9,5.9,2.2,8.7,3.6c2.8,1.4,5.5,3.1,8.1,4.9c-1.6-1.2-1.4-4-1.3-7c0-1.5,0-2.9-0.3-4.2C104.8,10.1,104.3,9.1,103.2,8.7z"/>
				<path class="st1" d="M121,21.6c-0.8-0.8-2-1-3.2-0.9c-1.3,0.1-2.7,0.5-4.1,1s-2.7,1-3.9,1.2s-2.2,0.2-3-0.4
					c2.5,1.9,4.9,3.9,7.2,6.1c2.2,2.2,4.3,4.7,6.1,7.2c-0.6-0.8-0.6-1.8-0.3-3s0.8-2.5,1.2-3.9c0.5-1.4,0.9-2.8,1-4.1
					C122,23.6,121.8,22.4,121,21.6z"/>
				<path class="st1" d="M93.1,4.5c14,4.5,26.4,13.5,35,25.5"/>
			</g>
			<g>
				<path class="st1" d="M133.9,39.4c-1.1-2-4.1-2.1-7-2c-3,0-5.7,0.2-6.8-1.5c1.9,2.5,3.5,5.2,4.9,8s2.7,5.7,3.6,8.7
					c-0.3-1,0-2,0.6-3c0.6-1.1,1.5-2.2,2.4-3.4s1.7-2.4,2.2-3.5c0.2-0.6,0.4-1.2,0.4-1.7C134.3,40.4,134.2,39.9,133.9,39.4z"/>
				<path class="st1" d="M140.7,60.3c-0.2-1.2-1-2-2.1-2.7s-2.5-1.1-3.9-1.6c-1.4-0.4-2.8-0.8-3.9-1.3s-1.9-1.1-2.2-2.1
					c1,3,1.7,6.1,2.2,9.2c0.5,3.1,0.7,6.3,0.7,9.4c-0.1-2,2.4-3.4,4.8-5.1C138.8,64.5,141,62.6,140.7,60.3z"/>
				<path class="st1" d="M128.2,30c2.2,3,4.1,6.1,5.8,9.4c1.7,3.3,3.1,6.7,4.2,10.2c1.1,3.5,2,7.1,2.6,10.7c0.6,3.6,0.8,7.3,0.9,11"
					/>
			</g>
		</g>
	</g>
</g>
<g>
	<circle class="st2" cx="71.3" cy="71.2" r="51.6"/>
	<g>
		<g>
			<g>
				<path class="st3" d="M123.9,88.4c0.3-0.8,0.2-1.7,0-2.5s-0.6-1.7-1.2-2.5s-1.2-1.6-2-2.3c-0.8-0.8-1.6-1.5-2.5-2.2
					c-0.8-0.7-1.7-1.3-2.5-2c-0.8-0.6-1.5-1.2-2.2-1.9c-1.3-1.2-2.1-2.4-2-3.7c-0.1,4.2-0.7,8.4-2,12.4l-1.1,3
					c-0.4,1-0.9,1.9-1.3,2.8c-0.4,1-1,1.8-1.6,2.8l-0.8,1.4c-0.3,0.4-0.6,0.8-0.9,1.3c0.8-1,2.2-1.5,4-1.7s4-0.2,6.1-0.3
					c2.2-0.1,4.4-0.4,6.2-1C122,91.2,123.3,90.1,123.9,88.4z"/>
				<path class="st3" d="M103.8,116c3-2.1,2.4-6.8,1.3-10.9c-1.2-4.3-2.7-8-1.2-10.1l-0.9,1.3l-0.5,0.6c-0.2,0.2-0.4,0.4-0.5,0.6
					l-2.1,2.3l-2.3,2.1c-0.4,0.4-0.8,0.7-1.2,1l-1.3,0.9c-3.4,2.4-7.2,4.5-11.2,5.7c1.2-0.5,2.6,0,4.2,1c1.5,0.8,3.2,2.1,5.1,3.3
					c1.8,1.2,3.7,2.3,5.6,2.8C100.4,117.1,102.3,117.2,103.8,116z"/>
			</g>
			<g>
				<path class="st3" d="M71.2,126.6c1.7-0.1,3.2-1.2,4.4-2.7c1.2-1.5,2.1-3.6,2.9-5.6c1.7-4,2.6-8.1,5.2-8.6c-4,1.2-8.2,1.9-12.4,2
					c-4.2-0.1-8.4-0.7-12.4-2c0.6,0.3,1.2,0.6,1.6,1.1c0.5,0.6,0.9,1.3,1.2,2.1c0.7,1.7,1.4,3.7,2.2,5.7c0.4,1,0.8,2,1.3,3
					c0.2,0.5,0.5,0.9,0.8,1.4c0.3,0.4,0.6,0.8,0.8,1.2C68,125.6,69.4,126.6,71.2,126.6z"/>
				<path class="st3" d="M38.8,116c1.4,1.1,3.3,1.1,5.2,0.6s3.8-1.5,5.6-2.8c1.8-1.2,3.5-2.5,5.1-3.3c1.6-0.9,2.9-1.4,4.2-1
					c-4-1.3-7.8-3.3-11.2-5.8l-1.3-0.9l-0.6-0.5c-0.2-0.2-0.4-0.3-0.6-0.5l-2.4-2.1l-2.1-2.3c-0.4-0.4-0.7-0.8-1-1.2l-1-1.3
					c1.5,2.2,0,5.8-1.2,10.1C36.4,109.2,35.7,113.9,38.8,116z"/>
			</g>
			<g>
				<path class="st3" d="M18.6,88.3c0.6,1.6,2.1,2.7,3.9,3.4c1.9,0.6,4.1,0.9,6.3,1c1,0.1,2.1,0.1,3.2,0.2c1,0,2,0.1,2.9,0.2
					c1.8,0.2,3,0.8,3.8,1.8c-2.4-3.4-4.5-7.2-5.7-11.2c-1.3-4-1.9-8.2-2-12.4c0.1,1.3-0.8,2.5-2.2,3.7c-0.7,0.6-1.5,1.2-2.2,1.9
					c-0.8,0.7-1.7,1.3-2.5,2c-1.7,1.4-3.4,2.9-4.4,4.5C18.6,84.9,18,86.6,18.6,88.3z"/>
				<path class="st3" d="M18.7,54.2c-0.6,1.7,0,3.5,1,5.1s2.7,3.1,4.4,4.5c0.8,0.7,1.6,1.3,2.5,2c0.8,0.6,1.5,1.2,2.2,1.8
					c1.3,1.2,2.2,2.3,2.2,3.7c0.1-4.2,0.7-8.4,2-12.4c1.3-4,3.3-7.8,5.7-11.2c-0.8,1-2.2,1.5-3.9,1.7c-1.8,0.2-4,0.1-6.1,0.3
					c-2.1,0.1-4.3,0.4-6.2,1C20.7,51.3,19.3,52.4,18.7,54.2z"/>
			</g>
			<g>
				<path class="st3" d="M38.8,26.5c-0.7,0.5-1.2,1.2-1.5,2c-0.2,0.4-0.3,0.8-0.4,1.3c-0.1,0.5-0.1,0.9-0.1,1.4c0,2,0.4,4.1,0.9,6.2
					c0.6,2.1,1.2,4.2,1.5,5.9c0.2,1.7,0.3,3.2-0.6,4.2l1-1.3l0.5-0.6l0.5-0.6l2.1-2.3l2.3-2.1c0.4-0.4,0.8-0.7,1.2-1l1.3-1
					c3.4-2.4,7.2-4.5,11.2-5.7c-1.2,0.5-2.6,0-4.2-1c-1.5-0.8-3.3-2.1-5.1-3.3c-1.9-1.2-3.8-2.3-5.6-2.8
					C42,25.4,40.2,25.4,38.8,26.5z"/>
				<path class="st3" d="M71.3,15.9C69.5,16,68,17,66.7,18.5c-0.6,0.7-1.1,1.6-1.6,2.6s-0.9,2-1.3,3c-0.8,2-1.4,4-2.2,5.6
					c-0.7,1.7-1.6,2.8-2.8,3.2c4-1.2,8.2-1.9,12.4-2c4.2,0.1,8.4,0.7,12.4,2c-1.2-0.4-2.1-1.5-2.8-3.2c-0.7-1.7-1.4-3.6-2.2-5.6
					c-0.4-1-0.8-2-1.3-3s-1-1.9-1.6-2.6C74.7,17,73.1,16,71.3,15.9z"/>
			</g>
			<g>
				<path class="st3" d="M103.8,26.6c-0.7-0.5-1.5-0.8-2.4-0.8s-1.8,0.1-2.7,0.4c-1.9,0.6-3.8,1.6-5.6,2.8c-1.8,1.2-3.6,2.4-5.1,3.2
					c-1.6,0.8-2.9,1.3-4.2,0.8l3,1.1c1,0.4,1.9,0.9,2.8,1.4c1,0.4,1.8,1,2.8,1.6l1.4,0.8c0.4,0.3,0.8,0.6,1.3,0.9l1.3,1l0.6,0.5
					l0.6,0.5l2.3,2.1l2.1,2.3c0.4,0.4,0.7,0.8,1,1.2l0.9,1.3c-1.5-2.2,0.1-5.9,1.2-10.3C106.2,33.2,106.8,28.6,103.8,26.6z"/>
				<path class="st3" d="M123.9,54.2c-0.6-1.7-2-2.9-3.8-3.6c-1.9-0.7-4.1-0.9-6.2-1c-2.1-0.2-4.3-0.1-6.1-0.3
					c-1.8-0.2-3.1-0.7-3.9-1.7c2.4,3.4,4.5,7.2,5.7,11.2s1.9,8.2,2,12.4c-0.1-1.3,0.8-2.5,2.2-3.7c0.7-0.6,1.4-1.2,2.2-1.8
					c0.8-0.7,1.7-1.3,2.5-2c1.7-1.4,3.4-2.9,4.4-4.5C123.9,57.7,124.5,55.9,123.9,54.2z"/>
			</g>
		</g>
	</g>
</g>
<path class="st2" d="M127.1,4.6c-0.5,1-4.5,8.4-2.4,10.3c1.8,1.7,8.2-1.2,11.3-5.8c1.4-2.1,1.9-4.3,1.8-4.3c0,0-1.5,4.3-7.3,21.3"/>
<path class="st2" d="M17.8,6.6C12.3,3.7,6.1,5.9,4.1,10.3c-1.5,3.3-0.7,7.9,2.6,10.5c2.5,2,6.2,2.6,9.4,0.9c2.8-1.5,4.6-4.4,4.6-7.7
	c-3.2,0-6.4,0-9.6,0"/>
<path class="st2" d="M9.7,120.5c-3.7,12-4.8,16.2-4.6,16.2c0.4,0.1,4.2-14.2,9.4-14.3c1.7,0,3.2,1.5,4.4,3.3"/>
<path class="st2" d="M133.4,119.8c-3.6-1-8.2,3.3-9,7.9c-0.7,4,1.2,9,4.4,9.7c3.7,0.9,8.5-4.2,8.8-9.4
	C137.9,124.9,136.4,120.7,133.4,119.8z"/>
</svg>
